<svg preserveAspectRatio="none" overflow="visible" style="display: block;" width="88" height="88" viewBox="0 0 88 88" fill="none" xmlns="http://www.w3.org/2000/svg">
<g id="svg7">
<g clip-path="url(#clip0_0_280)">
<foreignObject x="-4" y="-4" width="96" height="96"><div xmlns="http://www.w3.org/1999/xhtml" style="backdrop-filter:blur(2px);clip-path:url(#bgblur_1_0_280_clip_path);height:100%;width:100%"></div></foreignObject><path id="Subtract" data-figma-bg-blur-radius="4" d="M88 88H0V0H88V88ZM69.5303 24.0039C66.193 24.8427 62.8669 25.724 59.5527 26.6465L57.249 27.2725C56.8589 27.3784 56.0778 27.5546 55.7637 27.7363C55.6657 27.9253 55.994 28.0956 56.1426 28.1953C56.6186 28.5145 57.1095 28.8163 57.5889 29.1309C58.483 29.6959 59.2722 30.1974 59.29 31.3594C59.2946 31.6549 59.2737 31.9484 59.1299 32.2139C58.8835 32.668 58.5397 33.1354 58.2451 33.5684C57.1713 35.1363 56.0263 36.6561 54.8135 38.123C53.945 39.1696 53.0408 40.2038 52.0918 41.1807C51.8632 41.4161 51.6595 41.6909 51.4277 41.9248C50.7658 42.5929 50.0876 43.2472 49.416 43.9062C49.1112 44.2051 48.7649 44.4695 48.4463 44.7539C48.2419 44.9364 48.0546 45.1394 47.8496 45.3213C47.0831 45.9845 46.3134 46.6445 45.5215 47.2783C43.405 48.9631 41.1917 50.5265 38.8916 51.96C32.1868 56.1928 24.9915 59.626 17.459 62.1855C17.1464 62.2932 16.1277 62.553 16.001 62.7754C15.9975 62.8813 16.0055 62.9121 16.0879 62.9922C16.3387 63.0249 17.195 62.9421 17.4678 62.918C18.819 62.8031 20.1668 62.6482 21.5088 62.4551C32.865 60.8381 43.6074 56.3808 52.7041 49.5107C56.0652 46.9792 59.2227 44.1969 62.1484 41.1885C63.3999 39.9099 64.5826 38.5507 65.7686 37.2002C66.2317 36.673 66.3591 36.2223 67.2227 36.2207C68.026 36.2199 70.484 38.3013 70.9258 38.25C71.0461 38.1383 70.9869 37.661 70.9736 37.498C70.8471 35.9705 70.6993 34.4446 70.5674 32.918L70.002 26.4805C69.9415 25.7853 69.8851 25.0884 69.834 24.3926C69.8176 24.1725 69.7879 23.9676 69.5303 24.0039Z" fill="white" fill-opacity="0.5"/>
</g>
</g>
<defs>
<clipPath id="bgblur_1_0_280_clip_path" transform="translate(4 4)"><path d="M88 88H0V0H88V88ZM69.5303 24.0039C66.193 24.8427 62.8669 25.724 59.5527 26.6465L57.249 27.2725C56.8589 27.3784 56.0778 27.5546 55.7637 27.7363C55.6657 27.9253 55.994 28.0956 56.1426 28.1953C56.6186 28.5145 57.1095 28.8163 57.5889 29.1309C58.483 29.6959 59.2722 30.1974 59.29 31.3594C59.2946 31.6549 59.2737 31.9484 59.1299 32.2139C58.8835 32.668 58.5397 33.1354 58.2451 33.5684C57.1713 35.1363 56.0263 36.6561 54.8135 38.123C53.945 39.1696 53.0408 40.2038 52.0918 41.1807C51.8632 41.4161 51.6595 41.6909 51.4277 41.9248C50.7658 42.5929 50.0876 43.2472 49.416 43.9062C49.1112 44.2051 48.7649 44.4695 48.4463 44.7539C48.2419 44.9364 48.0546 45.1394 47.8496 45.3213C47.0831 45.9845 46.3134 46.6445 45.5215 47.2783C43.405 48.9631 41.1917 50.5265 38.8916 51.96C32.1868 56.1928 24.9915 59.626 17.459 62.1855C17.1464 62.2932 16.1277 62.553 16.001 62.7754C15.9975 62.8813 16.0055 62.9121 16.0879 62.9922C16.3387 63.0249 17.195 62.9421 17.4678 62.918C18.819 62.8031 20.1668 62.6482 21.5088 62.4551C32.865 60.8381 43.6074 56.3808 52.7041 49.5107C56.0652 46.9792 59.2227 44.1969 62.1484 41.1885C63.3999 39.9099 64.5826 38.5507 65.7686 37.2002C66.2317 36.673 66.3591 36.2223 67.2227 36.2207C68.026 36.2199 70.484 38.3013 70.9258 38.25C71.0461 38.1383 70.9869 37.661 70.9736 37.498C70.8471 35.9705 70.6993 34.4446 70.5674 32.918L70.002 26.4805C69.9415 25.7853 69.8851 25.0884 69.834 24.3926C69.8176 24.1725 69.7879 23.9676 69.5303 24.0039Z"/>
</clipPath><clipPath id="clip0_0_280">
<rect width="88" height="88" rx="4" fill="white"/>
</clipPath>
</defs>
</svg>
