<svg xmlns="http://www.w3.org/2000/svg" viewBox="660 2010.4 120 145" width="120" height="145" fill="none"><g>
<path d="M744.74 2113.78C744.74 2113.78 743.88 2105.3 745.68 2097.19C747.48 2089.08 752.96 2080.18 752.76 2068.13C752.65 2060.77 748.17 2053.09 742.31 2048.85C737.00 2045 729.82 2043.22 722.35 2043.22C711.63 2043.22 704.35 2047.98 698.87 2056.01C694.89 2061.84 695.26 2068.9 695.76 2072.35C695.97 2073.77 695.64 2075.22 694.84 2076.42L688.64 2085.71C687.73 2087.06 688.36 2088.91 689.90 2089.44L693.13 2090.55C694.24 2090.93 695.07 2091.87 695.32 2093.02C695.92 2095.86 697.17 2101.35 698.57 2105C699.03 2106.23 700.24 2107.01 701.56 2106.95C704.06 2106.84 708.56 2106.5 713.48 2105.53C714.43 2105.34 715.32 2106.06 715.33 2107.03L715.46 2113.78" stroke="#363636" stroke-width="1.8" stroke-linecap="round" stroke-linejoin="round" />
<path d="M727.28 2079.48C721.66 2083.77 711.95 2081.71 711.05 2075.13C700.04 2073.39 703.09 2061.08 709.61 2060.63C709.61 2060.63 709.04 2053.66 715.94 2050.86C720.64 2048.96 727.09 2050.79 728.26 2054.56C731.39 2050.72 740.25 2053.08 740.04 2059.66C744.61 2059.31 747.53 2066.72 742.77 2069.75C744.75 2072.83 742.12 2077.32 738.46 2076.98C738.46 2076.98 740.41 2081.52 738.64 2083.65C737.63 2084.86 737.02 2085 735.85 2084.61C734.68 2084.21 733.12 2082.39 732.72 2081.9C731.31 2080.2 728.62 2078.45 727.28 2079.48H727.28Z" fill="#A1BEDB" stroke="#363636" stroke-width="1.8" stroke-linecap="round" stroke-linejoin="round" />
<g>
<g>
<g>
<path d="M720.92 2061.29L716.26 2072" stroke="#363636" stroke-width="2" stroke-linecap="round" stroke-linejoin="round" />
<path d="M720.92 2061.29L725.59 2072" stroke="#363636" stroke-width="2" stroke-linecap="round" stroke-linejoin="round" />
</g>
<path d="M717.90 2069.69H723.95" stroke="#363636" stroke-width="2" stroke-linecap="round" stroke-linejoin="round" />
</g>
<path d="M730.95 2061.29V2072.2" stroke="#363636" stroke-width="2" stroke-linecap="round" stroke-linejoin="round" />
</g>
</g>
</svg>
