<svg xmlns="http://www.w3.org/2000/svg" viewBox="1080.5 706.3 120 120" width="120" height="120" fill="none"><g clip-path="url(#clip14_0_1)">
<path d="M1134.31 767.01L1133.29 768.10C1133.17 768.23 1133.1 768.41 1133.12 768.59C1133.13 768.77 1133.21 768.94 1133.36 769.05L1134.63 770.08L1133.16 770.83C1132.92 770.96 1132.78 771.23 1132.82 771.50L1134.26 782.97C1133.66 782.68 1132.99 782.43 1132.23 782.19L1129.62 781.42C1129.66 780.01 1129.94 773.82 1131.41 770.21C1131.82 769.23 1133.39 767.72 1134.31 767.00L1134.31 767.01Z" fill="#A288B9" />
<path d="M1160.65 791.16L1150.31 789.50C1149.2 789.03 1148.05 788.65 1146.91 788.38C1149.6 785.89 1157.39 779.58 1160.58 777.02C1160.73 776.89 1160.82 776.70 1160.82 776.51C1160.82 776.31 1160.74 776.12 1160.58 776.00L1158.5 774.31C1158.59 774.29 1158.67 774.26 1158.74 774.21C1159.25 773.85 1159.85 773.60 1160.49 773.34C1161.33 772.99 1162.2 772.63 1162.93 771.98C1163.15 771.79 1163.21 771.47 1163.09 771.21C1162.82 770.64 1162.93 769.75 1163.02 768.88C1163.05 768.63 1163.08 768.38 1163.1 768.13C1165.2 770.21 1169.57 774.75 1170.66 777.53C1172.79 782.98 1171.03 797.90 1170.89 799.00C1169.9 801.98 1168.5 803.56 1168.11 803.96C1167.31 804.17 1163.72 805.05 1161.75 804.73C1159.47 804.36 1152.76 802.00 1150.6 800.99C1148.95 795.19 1149.31 792.34 1150.05 791.02C1150.1 790.93 1150.15 790.86 1150.2 790.78C1150.24 790.80 1150.6 790.87 1150.8 790.90L1160.45 792.44C1160.8 792.50 1161.13 792.26 1161.19 791.90C1161.25 791.55 1161.01 791.22 1160.66 791.16L1160.65 791.16ZM1163.79 782.46C1163.92 782.64 1164.12 782.73 1164.32 782.73C1164.45 782.73 1164.58 782.69 1164.69 782.61L1168.18 780.05C1168.47 779.83 1168.53 779.43 1168.32 779.14C1168.11 778.85 1167.71 778.78 1167.42 779.00L1163.93 781.56C1163.64 781.78 1163.58 782.18 1163.79 782.47L1163.79 782.46Z" fill="#A288B9" />
<path d="M1141.61 767.09C1143.36 768.20 1145.42 768.80 1147.49 768.80C1147.79 768.80 1148.09 768.79 1148.39 768.76L1154.44 768.25C1152.78 770.63 1150.85 773.28 1149.02 775.80C1145.39 780.78 1141.64 785.93 1139.99 788.97C1139.87 789.06 1139.74 789.14 1139.63 789.24C1139.19 781.34 1140.47 773.78 1141.52 767.66C1141.55 767.47 1141.58 767.28 1141.61 767.09Z" fill="#F1EAF7" />
<path d="M1159.41 762.76L1161.78 766.78C1161.89 767.31 1161.81 768.03 1161.73 768.73C1161.64 769.59 1161.54 770.47 1161.73 771.26C1161.22 771.61 1160.62 771.86 1159.99 772.13C1159.32 772.40 1158.63 772.69 1158 773.13C1157.81 773.26 1157.73 773.47 1157.73 773.69L1156.67 772.82C1156.39 772.59 1155.98 772.63 1155.75 772.91C1155.53 773.2 1155.57 773.61 1155.85 773.83L1159.13 776.5C1156.59 778.54 1147.36 786.00 1145.33 788.08C1144.13 787.92 1142.99 787.92 1141.96 788.14C1143.82 785.11 1146.98 780.78 1150.05 776.56C1154.11 770.98 1157.99 765.66 1159.39 762.75L1159.41 762.76Z" fill="#A288B9" />
<path d="M1112.66 777.76L1131.85 783.43C1134.19 784.18 1135.46 784.91 1136.82 787.29L1144.34 803.58C1144.49 803.91 1144.88 804.05 1145.2 803.90C1145.52 803.74 1145.66 803.36 1145.51 803.03L1144.4 800.63L1149.83 802.08C1150.84 802.57 1153.13 803.46 1155.49 804.26L1146.07 807.26L1117.42 799.46L1109.7 779.59C1109.7 779.59 1109.67 779.54 1109.66 779.51C1109.43 779.10 1109.1 778.34 1109.4 777.94C1109.68 777.56 1110.7 777.29 1112.65 777.76H1112.66Z" fill="#E6E6E6" />
<path d="M1136.11 770.79C1136.2 770.74 1136.26 770.69 1136.32 770.61C1136.32 770.61 1136.32 770.61 1136.33 770.61C1136.34 770.59 1136.35 770.56 1136.37 770.53C1136.39 770.48 1136.42 770.44 1136.43 770.39C1136.45 770.35 1136.45 770.31 1136.45 770.27C1136.45 770.23 1136.47 770.19 1136.47 770.15C1136.47 770.10 1136.44 770.05 1136.43 770.00C1136.42 769.97 1136.42 769.94 1136.4 769.91C1136.4 769.91 1136.4 769.91 1136.4 769.90C1136.39 769.87 1136.35 769.83 1136.33 769.80C1136.3 769.77 1136.28 769.72 1136.24 769.70C1136.24 769.70 1136.24 769.70 1136.24 769.69L1134.73 768.47L1138.12 764.83C1140.64 763.23 1142.95 761.37 1144.06 760.44L1143.92 761.49C1143.89 761.76 1144.03 762.01 1144.25 762.14C1143.72 762.69 1142.46 763.99 1141.88 764.93C1141.79 764.74 1141.63 764.58 1141.41 764.54C1141.05 764.48 1140.72 764.72 1140.66 765.07C1140.54 765.84 1140.4 766.63 1140.26 767.44C1139.3 773.11 1138.12 779.99 1138.28 787.29L1138 786.68C1137.26 785.39 1136.53 784.51 1135.69 783.85C1135.69 783.84 1135.69 783.84 1135.69 783.83L1134.17 771.79L1136.14 770.78L1136.11 770.79Z" fill="#A288B9" />
<path d="M1142.15 755.00C1142.1 754.97 1142.05 754.92 1142 754.87C1142.06 754.92 1142.13 754.97 1142.2 755.03C1142.18 755.02 1142.16 755.01 1142.15 755.00Z" fill="#A288B9" />
<path d="M1140.96 789.90C1141.99 789.30 1144.8 789.38 1145.28 789.40C1145.29 789.40 1145.31 789.40 1145.32 789.40C1145.46 789.43 1145.59 789.45 1145.6 789.45C1146.7 789.63 1147.85 789.95 1148.93 790.36C1147.77 792.30 1147.84 795.65 1149.13 800.54L1143.7 799.09L1139.91 790.87C1140.07 790.63 1140.59 790.07 1140.96 789.89L1140.96 789.90Z" fill="white" />
<path d="M1158.53 761.52C1158.52 761.57 1158.51 761.60 1158.49 761.65V761.52C1158.49 761.52 1158.52 761.52 1158.53 761.52V761.52Z" fill="white" />
<path d="M1149.28 756.64C1149.23 756.64 1144.26 756.24 1142.2 755.02C1142.13 754.97 1142.07 754.92 1142 754.86C1141.39 754.19 1140.83 751.78 1140.62 749.70C1140.75 748.96 1141.66 743.82 1142.4 740.53C1142.59 740.11 1142.77 739.67 1142.94 739.32C1145.08 738.58 1146.76 739.16 1148.46 736.81C1149.01 736.06 1149.69 735.28 1150.38 734.47C1150.44 734.62 1150.53 734.75 1150.67 734.83C1151.25 735.17 1151.38 734.56 1151.87 734.34C1153.9 733.47 1155.21 735.00 1156.24 736.88C1157.33 738.88 1157.94 741.15 1158 743.43C1158.02 744.41 1157.94 745.43 1158.26 746.35C1158.31 746.48 1158.37 746.61 1158.46 746.73C1158.38 746.95 1158.32 747.08 1158.29 747.1C1158.29 747.33 1158.46 747.52 1158.71 747.54L1159.68 747.60C1159.86 747.61 1160.04 747.52 1160.13 747.37C1160.66 746.55 1161.84 744.94 1163.32 745.02C1164.19 745.07 1165.14 745.89 1165.17 746.76C1165.28 749.22 1164.2 751.08 1163.85 751.18C1163.21 751.37 1163.64 751.52 1162.98 751.39C1162.95 751.39 1162.91 751.38 1162.87 751.37C1162.52 750.34 1161.56 749.59 1160.42 749.59C1158.99 749.59 1157.82 750.77 1157.82 752.22C1157.82 753.25 1158.42 754.14 1159.28 754.57C1159.05 755.00 1158.87 755.42 1158.77 755.80L1157.47 756.79C1157.32 756.92 1157.22 757.11 1157.22 757.31L1157.19 761.66C1157.19 762.02 1157.47 762.31 1157.83 762.31C1157.99 762.31 1158.14 762.25 1158.25 762.15C1157.7 763.29 1156.67 764.95 1155.37 766.86L1148.27 767.46C1146.18 767.64 1144.06 767.11 1142.29 765.98L1141.84 765.69C1141.86 765.56 1141.89 765.42 1141.9 765.29C1141.93 765.16 1141.9 765.04 1141.85 764.93C1142.43 763.99 1143.68 762.68 1144.22 762.14C1144.29 762.17 1144.36 762.20 1144.44 762.22C1144.47 762.22 1144.5 762.22 1144.53 762.22C1144.85 762.22 1145.12 761.98 1145.17 761.65L1145.71 757.47C1147.49 757.80 1149.05 757.93 1149.17 757.93C1149.18 757.93 1149.2 757.93 1149.21 757.93C1149.55 757.93 1149.83 757.68 1149.86 757.33C1149.88 756.97 1149.62 756.66 1149.26 756.63L1149.28 756.64ZM1145.65 742.54C1145.02 742.43 1144.41 742.97 1144.29 743.73C1144.17 744.49 1144.4 745.02 1145.03 745.11C1145.65 745.21 1146.44 744.86 1146.56 744.10C1146.68 743.34 1146.27 742.64 1145.64 742.54L1145.65 742.54ZM1149.38 750.89C1149.2 750.60 1149.09 750.25 1148.81 750.23C1147.87 750.15 1146.38 750.81 1145.59 750.49C1145.09 750.29 1144.58 748.87 1144.36 748.87C1143.86 748.89 1143.69 749.40 1144.04 749.97C1145.55 752.40 1145.92 751.89 1149.01 751.38C1149.27 751.33 1149.57 751.19 1149.38 750.90V750.89ZM1151.57 746.94C1152.22 747.06 1152.6 747.02 1153.04 746.39C1153.47 745.76 1153.27 744.96 1152.75 744.59C1152.23 744.22 1151.46 744.44 1151.02 745.07C1150.58 745.70 1150.94 746.83 1151.57 746.94V746.94Z" fill="white" />
<path d="M1112.99 776.50L1128.33 781.04C1128.41 779.10 1128.73 773.31 1130.22 769.71C1130.88 768.09 1133.55 765.79 1134.36 765.42C1138.62 763.49 1143.81 758.93 1143.86 758.88C1143.98 758.77 1144.11 758.73 1144.26 758.73L1144.46 757.20C1143.34 756.93 1142.26 756.58 1141.49 756.11C1139.92 755.16 1139.41 750.63 1139.33 749.73C1139.33 749.67 1139.33 749.62 1139.33 749.56C1139.36 749.37 1139.72 747.31 1140.18 744.93C1140.07 744.98 1139.53 735.62 1141.37 731.97C1143.07 728.64 1146.3 725.95 1149.95 725.54C1150.31 725.39 1150.68 725.25 1151.06 725.14C1153.68 724.34 1156.6 724.42 1159.42 725.33C1161.03 725.84 1164.7 726.21 1165 728.41C1165.01 728.55 1165.02 728.70 1165.09 728.82C1165.18 728.96 1165.36 729.01 1165.52 729.06C1168.55 730.01 1169.95 733.99 1171.03 736.86C1172.24 740.07 1172.32 743.18 1171.17 746.41C1168.15 754.93 1165.83 751.38 1160.89 756.33C1159.7 757.57 1158.97 758.08 1158.73 757.46L1158.5 757.64L1158.47 761.51V761.64C1158.49 761.60 1158.5 761.56 1158.51 761.52C1158.57 761.38 1158.61 761.24 1158.63 761.12C1158.69 760.86 1158.9 760.66 1159.16 760.62C1159.43 760.58 1159.68 760.70 1159.82 760.93L1162.87 766.11C1163.65 766.85 1170.34 773.24 1171.84 777.05C1174.17 782.99 1172.23 798.57 1172.15 799.23C1172.15 799.27 1172.14 799.31 1172.12 799.35C1170.84 803.21 1168.93 804.96 1168.85 805.03C1168.78 805.10 1168.68 805.15 1168.59 805.17C1168.43 805.22 1165.18 806.10 1162.7 806.10C1162.28 806.10 1161.88 806.07 1161.53 806.01C1160.52 805.85 1158.74 805.33 1156.85 804.72C1156.85 804.99 1156.68 805.24 1156.41 805.33L1146.28 808.56H1146.27C1146.21 808.58 1146.15 808.59 1146.09 808.59C1146.09 808.59 1146.08 808.59 1146.08 808.59C1146.02 808.59 1145.97 808.58 1145.91 808.56L1116.76 800.63C1116.56 800.57 1116.4 800.43 1116.33 800.23L1108.5 780.09C1107.69 778.58 1107.98 777.65 1108.37 777.14C1109.1 776.18 1110.72 775.94 1112.98 776.49L1112.99 776.50ZM1133.36 769.05C1133.22 768.94 1133.13 768.77 1133.12 768.59C1133.1 768.41 1133.16 768.23 1133.29 768.10L1134.31 767.01C1133.38 767.73 1131.81 769.23 1131.41 770.21C1129.93 773.82 1129.66 780.02 1129.62 781.42L1132.23 782.19C1132.99 782.44 1133.66 782.69 1134.26 782.98L1132.81 771.50C1132.78 771.23 1132.91 770.96 1133.16 770.84L1134.63 770.09L1133.35 769.06L1133.36 769.05ZM1160.42 753.55C1161.14 753.55 1161.73 752.95 1161.73 752.22C1161.73 751.49 1161.14 750.90 1160.42 750.90C1159.7 750.90 1159.11 751.49 1159.11 752.22C1159.11 752.95 1159.7 753.55 1160.42 753.55ZM1158.77 755.81C1158.88 755.43 1159.06 755.00 1159.28 754.57C1158.42 754.14 1157.82 753.26 1157.82 752.22C1157.82 750.78 1158.99 749.60 1160.43 749.60C1161.57 749.60 1162.53 750.35 1162.87 751.38C1162.92 751.38 1162.96 751.4 1162.98 751.4C1163.64 751.52 1163.21 751.38 1163.85 751.19C1164.21 751.08 1165.28 749.23 1165.18 746.77C1165.14 745.89 1164.19 745.08 1163.32 745.03C1161.84 744.94 1160.66 746.56 1160.14 747.37C1160.04 747.52 1159.87 747.62 1159.68 747.60L1158.72 747.54C1158.46 747.52 1158.3 747.34 1158.3 747.10C1158.32 747.09 1158.38 746.95 1158.46 746.74C1158.38 746.62 1158.32 746.49 1158.27 746.36C1157.95 745.43 1158.03 744.42 1158 743.44C1157.95 741.15 1157.34 738.88 1156.24 736.88C1155.21 735.00 1153.91 733.47 1151.88 734.35C1151.39 734.56 1151.26 735.17 1150.67 734.83C1150.53 734.75 1150.45 734.62 1150.38 734.48C1149.69 735.28 1149.02 736.06 1148.47 736.82C1146.76 739.17 1145.09 738.58 1142.94 739.32C1142.77 739.68 1142.6 740.11 1142.4 740.53C1141.67 743.83 1140.75 748.97 1140.63 749.70C1140.83 751.79 1141.4 754.19 1142.01 754.87C1142.05 754.92 1142.11 754.97 1142.16 755.00C1142.17 755.01 1142.19 755.01 1142.2 755.03C1144.26 756.24 1149.23 756.64 1149.29 756.65C1149.65 756.68 1149.91 756.99 1149.88 757.35C1149.86 757.69 1149.57 757.95 1149.24 757.95C1149.22 757.95 1149.21 757.95 1149.19 757.95C1149.07 757.93 1147.51 757.81 1145.74 757.48L1145.19 761.66C1145.15 762 1144.87 762.23 1144.55 762.23C1144.52 762.23 1144.5 762.23 1144.47 762.23C1144.38 762.22 1144.31 762.19 1144.24 762.15C1144.02 762.02 1143.88 761.77 1143.91 761.49L1144.05 760.45C1142.95 761.38 1140.63 763.24 1138.12 764.84L1134.72 768.48L1136.23 769.70C1136.23 769.70 1136.23 769.70 1136.23 769.71C1136.26 769.73 1136.29 769.77 1136.32 769.80C1136.34 769.84 1136.38 769.87 1136.4 769.91C1136.4 769.91 1136.4 769.91 1136.4 769.91C1136.41 769.94 1136.41 769.98 1136.42 770.01C1136.44 770.06 1136.46 770.10 1136.46 770.15C1136.46 770.20 1136.46 770.23 1136.45 770.28C1136.45 770.32 1136.45 770.36 1136.43 770.40C1136.42 770.45 1136.38 770.49 1136.36 770.53C1136.34 770.56 1136.34 770.59 1136.32 770.62C1136.32 770.62 1136.32 770.62 1136.31 770.62C1136.26 770.69 1136.19 770.75 1136.11 770.79L1134.14 771.80L1135.66 783.84C1135.66 783.84 1135.66 783.86 1135.66 783.86C1136.49 784.52 1137.22 785.40 1137.96 786.70L1138.24 787.30C1138.09 780.00 1139.27 773.12 1140.23 767.45C1140.37 766.64 1140.51 765.85 1140.63 765.09C1140.69 764.73 1141.02 764.49 1141.37 764.55C1141.6 764.59 1141.77 764.75 1141.85 764.95C1141.9 765.06 1141.92 765.18 1141.9 765.31C1141.88 765.44 1141.86 765.58 1141.84 765.71L1142.29 766.00C1144.06 767.13 1146.18 767.65 1148.27 767.48L1155.37 766.88C1156.66 764.96 1157.7 763.31 1158.25 762.17C1158.13 762.27 1157.99 762.33 1157.82 762.33C1157.47 762.33 1157.18 762.04 1157.19 761.68L1157.22 757.33C1157.22 757.12 1157.31 756.93 1157.47 756.81L1158.77 755.82L1158.77 755.81ZM1148.93 790.36C1147.84 789.95 1146.7 789.63 1145.6 789.44C1145.59 789.44 1145.37 789.40 1145.35 789.40C1145.35 789.40 1145.32 789.40 1145.28 789.40C1144.8 789.38 1141.99 789.30 1140.95 789.90C1140.58 790.08 1140.07 790.63 1139.9 790.88L1143.7 799.10L1149.13 800.54C1147.83 795.66 1147.76 792.31 1148.93 790.37V790.36ZM1139.98 788.97C1141.64 785.93 1145.38 780.78 1149.01 775.80C1150.84 773.28 1152.77 770.63 1154.43 768.25L1148.38 768.76C1148.08 768.79 1147.79 768.80 1147.48 768.80C1145.42 768.80 1143.36 768.20 1141.61 767.09C1141.57 767.28 1141.54 767.47 1141.51 767.66C1140.46 773.78 1139.18 781.34 1139.62 789.24C1139.73 789.14 1139.86 789.06 1139.98 788.97ZM1161.77 766.77L1159.4 762.75C1158 765.66 1154.12 770.98 1150.06 776.56C1146.98 780.78 1143.83 785.11 1141.97 788.14C1143 787.92 1144.15 787.92 1145.34 788.08C1147.37 786.00 1156.6 778.54 1159.14 776.5L1155.86 773.83C1155.58 773.60 1155.54 773.19 1155.76 772.91C1155.99 772.63 1156.4 772.59 1156.68 772.82L1157.75 773.69C1157.75 773.47 1157.82 773.26 1158.01 773.13C1158.64 772.69 1159.33 772.40 1160 772.13C1160.63 771.86 1161.23 771.61 1161.74 771.26C1161.54 770.47 1161.65 769.59 1161.74 768.73C1161.82 768.03 1161.9 767.31 1161.79 766.78L1161.77 766.77ZM1161.75 804.73C1163.71 805.05 1167.31 804.17 1168.11 803.96C1168.5 803.56 1169.89 801.97 1170.89 799.00C1171.02 797.90 1172.79 782.98 1170.65 777.53C1169.56 774.75 1165.2 770.21 1163.09 768.13C1163.08 768.38 1163.04 768.63 1163.02 768.88C1162.92 769.75 1162.82 770.65 1163.09 771.21C1163.21 771.47 1163.15 771.78 1162.93 771.98C1162.2 772.63 1161.33 772.99 1160.49 773.34C1159.85 773.60 1159.25 773.85 1158.74 774.21C1158.66 774.26 1158.58 774.29 1158.5 774.31L1160.58 776.00C1160.73 776.12 1160.82 776.31 1160.82 776.51C1160.82 776.70 1160.73 776.89 1160.58 777.02C1157.39 779.58 1149.59 785.90 1146.9 788.38C1148.05 788.65 1149.2 789.04 1150.31 789.50L1160.65 791.16C1161 791.22 1161.24 791.56 1161.19 791.91C1161.13 792.27 1160.8 792.51 1160.44 792.45L1150.79 790.90C1150.6 790.87 1150.23 790.81 1150.19 790.79C1150.14 790.86 1150.09 790.94 1150.05 791.02C1149.3 792.34 1148.94 795.17 1150.59 801C1152.76 802.01 1159.46 804.36 1161.74 804.74L1161.75 804.73ZM1109.67 779.51C1109.67 779.51 1109.69 779.56 1109.71 779.59L1117.43 799.46L1146.08 807.26L1155.5 804.26C1153.14 803.46 1150.85 802.57 1149.84 802.08L1144.41 800.63L1145.52 803.03C1145.67 803.36 1145.53 803.74 1145.21 803.90C1144.89 804.05 1144.5 803.91 1144.35 803.58L1136.83 787.29C1135.47 784.92 1134.2 784.18 1131.86 783.43L1112.67 777.76C1110.73 777.29 1109.7 777.56 1109.42 777.94C1109.12 778.34 1109.45 779.10 1109.68 779.51H1109.67Z" fill="#363636" />
<path d="M1144.37 748.87C1144.58 748.86 1145.09 750.28 1145.59 750.48C1146.38 750.80 1147.86 750.14 1148.81 750.22C1149.09 750.25 1149.2 750.59 1149.38 750.89C1149.57 751.18 1149.27 751.32 1149.01 751.36C1145.92 751.88 1145.55 752.39 1144.04 749.95C1143.7 749.39 1143.86 748.88 1144.37 748.86V748.87Z" fill="#363636" />
<path d="M1167.43 778.99C1167.72 778.77 1168.12 778.84 1168.33 779.13C1168.54 779.42 1168.48 779.83 1168.19 780.04L1164.7 782.60C1164.59 782.69 1164.45 782.72 1164.33 782.72C1164.13 782.72 1163.93 782.63 1163.8 782.45C1163.59 782.16 1163.66 781.75 1163.94 781.54L1167.43 778.98L1167.43 778.99Z" fill="#363636" />
<path d="M1152.75 744.59C1153.27 744.96 1153.47 745.76 1153.04 746.39C1152.6 747.02 1152.22 747.06 1151.57 746.94C1150.94 746.83 1150.58 745.71 1151.02 745.08C1151.46 744.45 1152.23 744.23 1152.75 744.60V744.59Z" fill="#363636" />
<path d="M1145.65 742.54C1146.27 742.64 1146.69 743.34 1146.56 744.1C1146.44 744.86 1145.66 745.21 1145.03 745.11C1144.41 745.01 1144.18 744.49 1144.3 743.73C1144.42 742.97 1145.02 742.43 1145.65 742.53L1145.65 742.54Z" fill="#363636" />
<path d="M1160.42 750.90C1161.14 750.90 1161.73 751.50 1161.73 752.23C1161.73 752.96 1161.14 753.55 1160.42 753.55C1159.7 753.55 1159.11 752.96 1159.11 752.23C1159.11 751.50 1159.7 750.90 1160.42 750.90Z" fill="white" />
</g>
<defs><clipPath id="clip14_0_1">
<rect width="65" height="84" fill="white" transform="matrix(-1 0 0 1 1173 724.6)" />
</clipPath>
</defs></svg>
