<svg preserveAspectRatio="none" overflow="visible" style="display: block;" width="32" height="32" viewBox="0 0 32 32" fill="none" xmlns="http://www.w3.org/2000/svg">
<g id="svg37">
<g id="Vector">
<path d="M15.9701 4.24008C17.8771 4.23372 19.7085 5.01888 21.0626 6.42323C22.4244 7.8298 23.1936 9.74621 23.2 11.7479C23.2052 13.724 22.4671 15.6229 21.1448 17.0346C20.9424 17.2503 20.7449 17.4461 20.5149 17.63C20.4441 17.6866 20.2966 17.8091 20.2681 17.8968C20.1929 18.1285 20.155 18.3897 20.108 18.6313L19.8981 19.6946C19.7321 20.5317 19.6127 21.1043 18.9967 21.7482C18.502 22.268 17.8466 22.5868 17.1477 22.6472C16.8527 22.6736 16.367 22.6594 16.0556 22.6588C15.6463 22.6596 15.1164 22.6778 14.722 22.6307C13.6709 22.5138 12.632 21.6733 12.3091 20.6072C12.0475 19.7437 11.9691 18.7321 11.7214 17.8614C11.7049 17.8033 11.1429 17.3289 11.045 17.2317C9.65516 15.8598 8.8477 13.9635 8.80251 11.9653C8.7522 9.9715 9.46046 8.03833 10.7718 6.59019C12.1752 5.0515 13.9521 4.29065 15.9701 4.24008ZM12.6954 10.8484C13.0905 10.6199 13.0926 10.3351 13.3289 9.9498C13.5057 9.66204 13.7238 9.40441 13.9754 9.18592C14.3566 8.85565 14.8069 8.62412 15.2898 8.51014C15.4327 8.47525 15.578 8.45196 15.7243 8.44049C15.858 8.42877 16.0209 8.42726 16.1499 8.40425C16.4339 8.35356 16.6824 8.11701 16.7636 7.82424C16.8233 7.60929 16.7983 7.37819 16.6938 7.18278C16.4487 6.72668 16.0417 6.74001 15.6039 6.77597C15.3137 6.81384 15.0875 6.84274 14.8046 6.9174C13.7803 7.19067 12.8728 7.81443 12.2266 8.68938C11.967 9.03903 11.5058 9.75796 11.5594 10.2066C11.5856 10.4276 11.696 10.6282 11.8657 10.7628C12.1141 10.9627 12.4152 10.9777 12.6954 10.8484Z" fill="#6378AE"/>
<path d="M13.7926 23.7718C14.0801 23.7554 14.4508 23.7658 14.7431 23.7658L17.5894 23.7657C17.9293 23.7657 18.3205 23.7122 18.6047 23.9319C18.7779 24.0639 18.8927 24.2636 18.9228 24.4856C18.9523 24.7043 18.8978 24.9264 18.7713 25.1033C18.6254 25.3034 18.438 25.4059 18.2024 25.438C17.9015 25.4541 17.5313 25.4446 17.2262 25.4446L14.4283 25.4455C14.0875 25.4456 13.6817 25.497 13.3957 25.281C13.2243 25.1535 13.1093 24.9591 13.0766 24.7418C12.9994 24.2355 13.3174 23.8424 13.7926 23.7718Z" fill="#6378AE"/>
<path d="M14.3632 26.5568C14.5908 26.5479 14.8556 26.5543 15.0854 26.5543L17.1882 26.5542C17.5038 26.5541 17.7953 26.515 18.0633 26.7147C18.238 26.8434 18.355 27.0409 18.3874 27.2619C18.4635 27.7866 18.1199 28.1597 17.6403 28.2317C17.4023 28.2425 17.1385 28.2371 16.8988 28.2372L14.8533 28.2376C14.531 28.2375 14.1599 28.2762 13.9039 28.0487C13.3284 27.5376 13.6098 26.6267 14.3632 26.5568Z" fill="#6378AE"/>
</g>
</g>
</svg>
