<svg preserveAspectRatio="none" overflow="visible" style="display: block;" width="40" height="40" viewBox="0 0 40 40" fill="none" xmlns="http://www.w3.org/2000/svg">
<g id="svg25">
<g id="Union">
<path d="M34.3915 13.2863C34.9638 13.3663 35.532 13.4754 36.0936 13.6115C36.2979 13.6607 36.5881 13.7269 36.7802 13.7999C36.8074 14.6376 36.786 15.5862 36.786 16.4308V26.9962C36.7862 28.0506 36.8032 29.1604 36.7782 30.2111C32.2248 29.085 26.3346 29.2194 22.0067 31.0831C21.4945 31.3268 21.0861 31.5386 20.6093 31.8468C20.6417 31.3111 20.5909 30.6758 20.6132 30.13C20.6255 29.7864 21.0391 29.374 21.289 29.1642C23.7315 27.1143 27.9976 26.7749 30.9384 27.3556C31.3818 27.4431 31.8208 27.5521 32.2538 27.6818C32.6075 27.7912 32.9491 27.9267 33.2997 28.0412C33.6104 28.1425 33.9162 28.0803 34.1503 27.8488C34.3066 27.6942 34.366 27.5376 34.3759 27.3195C34.4009 26.7673 34.3904 26.2097 34.3905 25.6564V16.2306C34.3903 15.26 34.4038 14.2535 34.3915 13.2863Z" fill="#6378AE"/>
<path d="M5.37001 13.296C5.41105 13.3427 5.3964 13.7276 5.39638 13.8156C5.3957 17.1867 5.3954 20.5578 5.3954 23.9289V26.0802C5.39538 26.3748 5.3543 27.409 5.47841 27.6388C5.8728 28.3688 6.52911 28.0213 7.10829 27.8214C7.38755 27.7237 7.6708 27.637 7.95693 27.5617C9.77925 27.0889 11.6763 26.9756 13.5419 27.2287C15.3584 27.471 17.8149 28.1506 18.9823 29.6749C19.003 29.8407 18.994 30.198 18.994 30.383C18.9958 30.8328 18.9942 31.2828 18.9882 31.7326C18.7299 31.5244 17.9257 31.1504 17.6102 31.004C17.4892 30.9539 17.3668 30.9049 17.245 30.8566C13.6396 29.4229 8.71128 29.1969 4.89638 29.8312C4.46026 29.9036 4.02566 29.9874 3.59365 30.0812C3.42663 30.1168 3.15094 30.164 3.00087 30.2287C3.0258 29.9603 3.00482 29.2198 3.00478 28.9142V15.2931C3.00474 14.8176 2.98954 14.2539 3.01357 13.7882C3.79667 13.5825 4.54479 13.4015 5.35048 13.296H5.37001Z" fill="#6378AE"/>
<path d="M27.8339 9.00698C29.5089 8.95397 31.1804 9.20334 32.7665 9.74428C32.7543 9.95586 32.7645 10.271 32.7645 10.4884V22.8849C32.7645 23.9353 32.7398 25.0912 32.7636 26.132C32.4868 26.0318 31.8261 25.8835 31.5311 25.8214C29.2092 25.3477 26.8123 25.3777 24.5028 25.9083C24.2958 25.9497 24.0146 26.033 23.8114 26.091C22.6495 26.4224 21.6125 26.8976 20.6298 27.5998C20.6582 27.3315 20.6379 26.6176 20.6376 26.3214L20.6366 13.049C20.6359 12.6631 20.615 12.2008 20.6649 11.8234C20.683 11.6872 20.9458 11.3838 21.0468 11.2804C22.6668 9.62341 25.6319 9.07068 27.8339 9.00698Z" fill="#6378AE"/>
<path d="M11.0917 9.00698C12.2226 8.97478 13.3538 9.06655 14.4647 9.28041C15.9187 9.56599 18.1376 10.3203 19.0018 11.6076C19.0291 12.4024 19.0106 13.3051 19.0106 14.1076V23.7208C19.0111 24.9846 19.0205 26.2262 18.9872 27.4894C18.8592 27.3771 18.6071 27.228 18.455 27.1378C17.6061 26.6351 16.7259 26.3028 15.7802 26.0314C13.3634 25.3931 10.8324 25.3145 8.38075 25.8019C7.99804 25.879 7.37419 26.0174 7.01161 26.1427C7.03527 25.9878 7.0275 25.7362 7.02724 25.5714L7.02529 24.6017V9.74721C7.28608 9.64232 7.6066 9.55751 7.8788 9.48159C8.96346 9.17905 9.97439 9.06561 11.0917 9.00698Z" fill="#6378AE"/>
</g>
</g>
</svg>
